<?xml version="1.0" encoding="utf-8"?>
<svg viewBox="89.986 0 180.738 118.251" style="enable-background:new 0 0 361.04 275.48;" xmlns="http://www.w3.org/2000/svg">
  <defs>
    <style type="text/css">
	.st0{display:none;}
	.st1{display:inline;fill:#050006;}
	.st2{fill:#FFFFFF;}
	.st3{fill:#FFFFFF;stroke:#637EAD;stroke-width:0.2;stroke-miterlimit:10;}
</style>
  </defs>
  <g id="Camada_3" class="st0">
    <rect x="-52.75" y="-48.61" class="st1" width="464.09" height="372.52"/>
  </g>
  <g id="logo">
    <g>
      <g>
        <polygon class="st3" points="144.54,15.79 163.19,31.9 129.55,16.95 &#9;&#9;&#9;"/>
        <polygon class="st3" points="152.37,15.18 226.6,9.4 132,4.94 &#9;&#9;&#9;"/>
        <polygon class="st3" points="226.6,9.4 191.84,35 176.37,27.23 &#9;&#9;&#9;"/>
        <polygon class="st3" points="191.84,35 200.99,39.59 198.33,42.74 183.22,41.34 &#9;&#9;&#9;"/>
        <polygon class="st3" points="243.27,34.63 214.56,44.23 209.22,43.72 226.6,9.4 &#9;&#9;&#9;"/>
        <polygon class="st3" points="209.22,43.72 207.23,46.69 190.06,52.48 198.33,42.74 &#9;&#9;&#9;"/>
        <polygon class="st3" points="223.07,50.68 211.84,45.02 207.23,46.69 199.18,61.88 &#9;&#9;&#9;"/>
        <polygon class="st3" points="232.91,55.62 226.24,52.27 231.4,46.77 233.16,45.95 &#9;&#9;&#9;"/>
        <polygon class="st3" points="214,64.56 217.72,60.76 208.32,63.37 &#9;&#9;&#9;"/>
        <polygon class="st3" points="243.27,69.33 234.02,67.83 232.91,55.62 246.75,59.98 &#9;&#9;&#9;"/>
        <polygon class="st3" points="248.8,54.55 267.55,66.53 246.75,59.98 &#9;&#9;&#9;"/>
        <polygon class="st3" points="236.94,88.4 235.91,88.73 239.67,78.75 253.98,71.08 &#9;&#9;&#9;"/>
        <polygon class="st3" points="224.73,86.76 229.7,84.09 235.91,88.73 &#9;&#9;&#9;"/>
        <polygon class="st3" points="197.93,80.82 224.73,86.76 201,99.48 192.84,86.41 &#9;&#9;&#9;"/>
        <polygon class="st3" points="214,64.56 209.22,69.22 229.7,84.09 235.22,81.13 234.02,67.83 &#9;&#9;&#9;"/>
        <polygon class="st3" points="199.18,61.88 196.61,67.05 208.32,63.37 &#9;&#9;&#9;"/>
        <polygon class="st3" points="196.61,67.05 183.22,71.27 187.96,78.75 190.31,79.24 &#9;&#9;&#9;"/>
        <polygon class="st3" points="157.73,75.89 163.19,87.83 179.01,99.62 179.72,99.61 189.39,81 187.96,78.75 170.81,75.17 &#9;&#9;&#9;"/>
        <polygon class="st3" points="132,106.29 95.38,116.58 138.91,98.12 &#9;&#9;&#9;"/>
        <polygon class="st3" points="149.96,65.83 174.99,57.46 175.23,58.25 179.38,65.07 170.81,75.17 157.87,73.45 &#9;&#9;&#9;"/>
        <polygon class="st3" points="182.41,69.74 198.75,62.08 183.86,59.68 179.38,65.07 &#9;&#9;&#9;"/>
        <polygon class="st3" points="177.18,45.79 187.44,53.3 174.99,57.46 172.44,49.28 &#9;&#9;&#9;"/>
        <polygon class="st3" points="159.17,41.34 159.41,45.34 168.1,52.48 170.5,50.68 164.67,41.36 &#9;&#9;&#9;"/>
        <polygon class="st3" points="149.96,65.83 160.03,55.77 162.98,56.25 &#9;&#9;&#9;"/>
        <polygon class="st3" points="158.59,31.62 170.23,41.25 164.67,41.36 &#9;&#9;&#9;"/>
        <polygon class="st3" points="159.41,45.34 160.03,55.77 151.98,50.88 130.99,49.3 101.52,42.69 154.78,41.57 &#9;&#9;&#9;"/>
      </g>
      <g>
        <polygon class="st3" points="99.07,9.04 129.85,4.94 132,4.94 129.55,16.95 &#9;&#9;&#9;"/>
        <polygon class="st3" points="132,4.94 152.37,15.18 144.54,15.79 &#9;&#9;&#9;"/>
        <polygon class="st3" points="152.37,15.18 176.37,27.23 226.6,9.4 &#9;&#9;&#9;"/>
        <polygon class="st3" points="176.37,27.23 191.84,35 183.22,41.34 169.34,40.06 163.19,31.9 &#9;&#9;&#9;"/>
        <polygon class="st3" points="226.6,9.4 209.22,43.72 200.99,39.59 &#9;&#9;&#9;"/>
        <polygon class="st3" points="188.63,54.17 198.33,42.74 183.22,41.34 177.18,45.79 &#9;&#9;&#9;"/>
        <polygon class="st3" points="214.56,44.23 211.84,45.02 223.07,50.68 233.16,45.95 &#9;&#9;&#9;"/>
        <polygon class="st3" points="199.18,61.88 208.32,63.37 217.72,60.76 226.24,52.27 223.07,50.68 &#9;&#9;&#9;"/>
        <polygon class="st3" points="232.91,55.62 234.02,67.83 214,64.56 217.72,60.76 &#9;&#9;&#9;"/>
        <polygon class="st3" points="257.35,57.92 260.19,61.83 248.8,54.55 &#9;&#9;&#9;"/>
        <polygon class="st3" points="239.67,78.75 243.27,69.33 253.98,71.08 &#9;&#9;&#9;"/>
        <polygon class="st3" points="235.22,81.13 239.67,78.75 235.91,88.73 &#9;&#9;&#9;"/>
        <polygon class="st3" points="201,99.48 202.44,99.47 235.91,88.73 224.73,86.76 &#9;&#9;&#9;"/>
        <polygon class="st3" points="190.31,79.24 196.61,67.05 203.35,64.93 209.22,69.22 197.93,80.82 &#9;&#9;&#9;"/>
        <polygon class="st3" points="187.96,78.75 183.22,71.27 170.81,75.17 &#9;&#9;&#9;"/>
        <polygon class="st3" points="179.72,99.61 189.39,81 192.84,86.41 &#9;&#9;&#9;"/>
        <polygon class="st3" points="138.91,98.12 157.73,75.89 163.19,87.83 &#9;&#9;&#9;"/>
        <polygon class="st3" points="199.18,61.88 198.75,62.08 183.86,59.68 188.63,54.17 &#9;&#9;&#9;"/>
        <polygon class="st3" points="179.38,65.07 182.41,69.74 170.81,75.17 &#9;&#9;&#9;"/>
        <polygon class="st3" points="168.1,52.48 174.48,57.63 173.5,57.96 162.98,56.25 &#9;&#9;&#9;"/>
        <polygon class="st3" points="172.44,49.28 174.99,57.46 170.5,50.68 &#9;&#9;&#9;"/>
        <polygon class="st3" points="169.95,41.25 172.44,49.28 177.18,45.79 170.23,41.25 &#9;&#9;&#9;"/>
        <polygon class="st3" points="159.17,41.34 158.59,31.62 164.67,41.36 &#9;&#9;&#9;"/>
        <polygon class="st3" points="154.78,41.57 159.17,41.34 159.41,45.34 &#9;&#9;&#9;"/>
        <polygon class="st3" points="139.77,29.33 154.78,41.57 101.52,42.69 &#9;&#9;&#9;"/>
      </g>
      <g>
        <polygon class="st3" points="132,4.94 144.54,15.79 129.55,16.95 &#9;&#9;&#9;"/>
        <polygon class="st3" points="144.54,15.79 163.19,31.9 176.37,27.23 152.37,15.18 &#9;&#9;&#9;"/>
        <polygon class="st3" points="226.6,9.4 200.99,39.59 191.84,35 &#9;&#9;&#9;"/>
        <polygon class="st3" points="209.22,43.72 200.99,39.59 198.33,42.74 &#9;&#9;&#9;"/>
        <polygon class="st3" points="233.16,45.95 243.27,34.63 214.56,44.23 &#9;&#9;&#9;"/>
        <polygon class="st3" points="183.22,41.34 177.18,45.79 170.23,41.25 169.34,40.06 &#9;&#9;&#9;"/>
        <polygon class="st3" points="190.06,52.48 188.63,54.17 199.18,61.88 207.23,46.69 &#9;&#9;&#9;"/>
        <polygon class="st3" points="214.56,44.23 209.22,43.72 207.23,46.69 &#9;&#9;&#9;"/>
        <polygon class="st3" points="226.24,52.27 223.07,50.68 231.4,46.77 &#9;&#9;&#9;"/>
        <polygon class="st3" points="217.72,60.76 226.24,52.27 232.91,55.62 &#9;&#9;&#9;"/>
        <polygon class="st3" points="248.8,54.55 246.75,59.98 232.91,55.62 &#9;&#9;&#9;"/>
        <polygon class="st3" points="243.27,69.33 253.98,71.08 258,68.74 262.98,68.71 263.25,70.59 267.55,66.53 246.75,59.98 &#9;&#9;&#9;"/>
        <polygon class="st3" points="234.02,67.83 235.22,81.13 239.67,78.75 243.27,69.33 &#9;&#9;&#9;"/>
        <polygon class="st3" points="229.7,84.09 235.22,81.13 235.91,88.73 &#9;&#9;&#9;"/>
        <polygon class="st3" points="209.22,69.22 197.93,80.82 224.73,86.76 229.7,84.09 &#9;&#9;&#9;"/>
        <polygon class="st3" points="203.35,64.93 208.32,63.37 214,64.56 209.22,69.22 &#9;&#9;&#9;"/>
        <polygon class="st3" points="170.81,75.17 196.61,67.05 199.18,61.88 &#9;&#9;&#9;"/>
        <polygon class="st3" points="192.84,86.41 197.93,80.82 187.96,78.75 &#9;&#9;&#9;"/>
        <polygon class="st3" points="201,99.48 179.72,99.61 192.84,86.41 &#9;&#9;&#9;"/>
        <polygon class="st3" points="163.19,87.83 160.88,90.94 160.46,98.75 132,106.29 138.91,98.12 &#9;&#9;&#9;"/>
        <polygon class="st3" points="95.38,116.58 157.73,75.89 138.91,98.12 &#9;&#9;&#9;"/>
        <polygon class="st3" points="131.08,106.55 118.04,113.91 95.38,116.58 &#9;&#9;&#9;"/>
        <polygon class="st3" points="188.63,54.17 187.44,53.3 174.99,57.46 174.99,58.05 179.38,65.07 &#9;&#9;&#9;"/>
        <polygon class="st3" points="149.96,65.83 162.98,56.25 173.5,57.96 &#9;&#9;&#9;"/>
        <polygon class="st3" points="170.5,50.68 174.99,57.46 174.48,57.63 168.1,52.48 &#9;&#9;&#9;"/>
        <polygon class="st3" points="164.67,41.36 169.95,41.25 172.44,49.28 170.5,50.68 &#9;&#9;&#9;"/>
        <polygon class="st3" points="160.03,55.77 159.41,45.34 168.1,52.48 162.98,56.25 &#9;&#9;&#9;"/>
        <polygon class="st3" points="139.77,29.33 154.78,41.57 159.17,41.34 158.59,31.62 &#9;&#9;&#9;"/>
        <polygon class="st3" points="92.6,32.91 101.52,42.69 139.77,29.33 &#9;&#9;&#9;"/>
      </g>
    </g>
  </g>
</svg>