<?xml version="1.0" encoding="utf-8"?>
<!-- Generator: Adobe Illustrator 23.0.0, SVG Export Plug-In . SVG Version: 6.00 Build 0)  -->
<svg version="1.1" xmlns="http://www.w3.org/2000/svg" xmlns:xlink="http://www.w3.org/1999/xlink" x="0px" y="0px"
	 viewBox="0 0 361.04 275.48" style="enable-background:new 0 0 361.04 275.48;" xml:space="preserve">
<style type="text/css">
	.st0{display:none;}
	.st1{display:inline;fill:#050006;}
	.st2{fill:#FFFFFF;}
	.st3{fill:#FFFFFF;stroke:#637EAD;stroke-width:0.2;stroke-miterlimit:10;}
</style>
<g id="Camada_3" class="st0">
	<rect x="-52.75" y="-48.61" class="st1" width="464.09" height="372.52"/>
</g>
<g id="logo">
	<g>
		<path class="st2" d="M24.56,256.95c0,4.19-1.2,7.35-3.6,9.49c-2.4,2.14-5.94,3.21-10.61,3.21H5.52V244.2h4.99
			c4.53,0,8,1.11,10.42,3.32C23.35,249.73,24.56,252.88,24.56,256.95z M21.72,256.92c0-3.27-0.93-5.77-2.8-7.48
			c-1.87-1.71-4.59-2.57-8.17-2.57H8.36v20.11h2.09c3.88,0,6.73-0.82,8.55-2.46C20.81,262.88,21.72,260.35,21.72,256.92z"/>
		<path class="st2" d="M88.01,269.64H75.12V244.2h12.89v2.67H77.96v7.73h10.05v2.65H77.96v9.72h10.05V269.64z"/>
		<path class="st2" d="M152.28,262.85c0,2.26-0.7,4.05-2.11,5.35c-1.41,1.3-3.33,1.95-5.77,1.95c-1.68,0-3.15-0.38-4.41-1.15
			c-1.26-0.77-2.17-1.83-2.74-3.2l2.03-1.73c0.38,1.07,1.05,1.9,1.99,2.51c0.94,0.6,2.02,0.91,3.25,0.91c1.54,0,2.74-0.4,3.62-1.19
			c0.87-0.79,1.31-1.91,1.31-3.35c0-1.16-0.4-2.18-1.21-3.04c-0.81-0.86-2.16-1.76-4.06-2.69c-2.25-1.11-3.82-2.19-4.71-3.25
			c-0.88-1.06-1.33-2.39-1.33-4.01c0-1.88,0.64-3.39,1.91-4.55c1.28-1.15,2.96-1.73,5.06-1.73c1.27,0,2.4,0.25,3.36,0.75
			s1.79,1.25,2.46,2.25l-1.93,1.8c-0.37-0.67-0.91-1.19-1.62-1.57c-0.71-0.37-1.51-0.56-2.4-0.56c-1.24,0-2.22,0.31-2.93,0.94
			c-0.71,0.63-1.07,1.47-1.07,2.54c0,0.97,0.27,1.78,0.82,2.44c0.54,0.66,1.62,1.42,3.22,2.29l0.15,0.07
			C149.9,257.18,152.28,259.92,152.28,262.85z"/>
		<path class="st2" d="M205.86,269.64h-2.83V244.2h2.83V269.64z"/>
		<path class="st2" d="M281.6,256.76c0,4.08-1.11,7.33-3.32,9.76c-2.21,2.43-5.23,3.64-9.04,3.64c-3.71,0-6.79-1.25-9.23-3.75
			c-2.44-2.5-3.66-5.66-3.66-9.49c0-3.78,1.21-6.93,3.64-9.45c2.43-2.52,5.47-3.78,9.11-3.78c2.34,0,4.4,0.44,6.19,1.31
			c1.79,0.87,3.27,2.17,4.44,3.88l-2.13,1.7c-0.91-1.36-2.09-2.41-3.53-3.13c-1.44-0.73-3.05-1.09-4.85-1.09
			c-2.91,0-5.32,1.01-7.21,3.04c-1.9,2.03-2.84,4.59-2.84,7.69c0,2.93,0.96,5.4,2.89,7.4c1.93,2,4.32,3,7.16,3
			c2.52,0,4.64-0.77,6.38-2.31c1.74-1.54,2.69-3.47,2.87-5.8h-7.96v-2.62H281.6z"/>
		<path class="st2" d="M354.63,270.35l-19.71-20.06v19.35h-2.83v-26.16l19.71,20.01v-19.3h2.83V270.35z"/>
	</g>
	<g>
		<g>
			<path class="st2" d="M43.11,176.12v9.46H14.81v18.76h28.31v9.54H14.81v18.84H5.43v-56.61H43.11z"/>
			<path class="st2" d="M90.83,223.27H64.81L60,232.74H49.48l28.31-56.61l28.31,56.61H95.57L90.83,223.27z M69.46,213.89H86.1
				l-8.32-16.64L69.46,213.89z"/>
			<path class="st2" d="M122.4,176.12h9.38v47.15h28.31v9.46H122.4V176.12z"/>
			<path class="st2" d="M198.1,176.12c3.92,0,7.57,0.73,10.97,2.2c3.4,1.47,6.41,3.51,9.02,6.12l-6.69,6.69
				c-3.7-3.7-8.13-5.55-13.29-5.55c-2.61,0-5.05,0.49-7.34,1.47c-2.29,0.98-4.29,2.32-6,4.04c-1.71,1.71-3.07,3.71-4.08,6
				c-1,2.28-1.51,4.73-1.51,7.34c0,2.61,0.5,5.06,1.51,7.34c1.01,2.28,2.35,4.28,4.04,6c1.69,1.71,3.68,3.06,6,4.04
				c2.31,0.98,4.77,1.47,7.38,1.47c5.11,0,9.54-1.82,13.29-5.47l6.69,6.61c-2.61,2.61-5.61,4.65-9.02,6.12
				c-3.4,1.47-7.05,2.2-10.97,2.2c-3.92,0-7.59-0.75-11.01-2.24c-3.43-1.49-6.43-3.52-9.02-6.08c-2.58-2.56-4.62-5.55-6.12-8.97
				c-1.5-3.43-2.24-7.1-2.24-11.01c0-3.8,0.75-7.44,2.24-10.89c1.49-3.45,3.54-6.47,6.12-9.05c2.58-2.58,5.59-4.62,9.02-6.12
				C190.52,176.87,194.19,176.12,198.1,176.12z"/>
			<path class="st2" d="M275.76,223.27h-26.03l-4.81,9.46H234.4l28.3-56.61l28.31,56.61h-10.52L275.76,223.27z M254.39,213.89h16.64
				l-8.32-16.64L254.39,213.89z"/>
			<path class="st2" d="M326.34,176.12c7.83,0,14.49,2.77,19.99,8.32c5.6,5.55,8.4,12.21,8.4,19.98c0,7.89-2.8,14.55-8.4,19.99
				c-5.49,5.55-12.16,8.32-19.99,8.32c-7.83,0-14.49-2.77-19.98-8.32c-5.55-5.49-8.32-12.16-8.32-19.99
				c0-7.78,2.77-14.44,8.32-19.98C311.79,178.9,318.45,176.12,326.34,176.12z M326.34,185.58c-5.17,0-9.63,1.85-13.38,5.55
				c-3.65,3.7-5.47,8.13-5.47,13.3c0,5.17,1.82,9.63,5.47,13.38c3.75,3.65,8.21,5.47,13.38,5.47s9.6-1.82,13.3-5.47
				c3.7-3.75,5.55-8.21,5.55-13.38c0-5.16-1.85-9.6-5.55-13.3C335.93,187.44,331.5,185.58,326.34,185.58z"/>
		</g>
		<rect x="248.55" y="159.83" class="st2" width="28.3" height="8.44"/>
	</g>
	<g>
		<g>
			<polygon class="st3" points="144.54,15.79 163.19,31.9 129.55,16.95 			"/>
			<polygon class="st3" points="152.37,15.18 226.6,9.4 132,4.94 			"/>
			<polygon class="st3" points="226.6,9.4 191.84,35 176.37,27.23 			"/>
			<polygon class="st3" points="191.84,35 200.99,39.59 198.33,42.74 183.22,41.34 			"/>
			<polygon class="st3" points="243.27,34.63 214.56,44.23 209.22,43.72 226.6,9.4 			"/>
			<polygon class="st3" points="209.22,43.72 207.23,46.69 190.06,52.48 198.33,42.74 			"/>
			<polygon class="st3" points="223.07,50.68 211.84,45.02 207.23,46.69 199.18,61.88 			"/>
			<polygon class="st3" points="232.91,55.62 226.24,52.27 231.4,46.77 233.16,45.95 			"/>
			<polygon class="st3" points="214,64.56 217.72,60.76 208.32,63.37 			"/>
			<polygon class="st3" points="243.27,69.33 234.02,67.83 232.91,55.62 246.75,59.98 			"/>
			<polygon class="st3" points="248.8,54.55 267.55,66.53 246.75,59.98 			"/>
			<polygon class="st3" points="236.94,88.4 235.91,88.73 239.67,78.75 253.98,71.08 			"/>
			<polygon class="st3" points="224.73,86.76 229.7,84.09 235.91,88.73 			"/>
			<polygon class="st3" points="197.93,80.82 224.73,86.76 201,99.48 192.84,86.41 			"/>
			<polygon class="st3" points="214,64.56 209.22,69.22 229.7,84.09 235.22,81.13 234.02,67.83 			"/>
			<polygon class="st3" points="199.18,61.88 196.61,67.05 208.32,63.37 			"/>
			<polygon class="st3" points="196.61,67.05 183.22,71.27 187.96,78.75 190.31,79.24 			"/>
			<polygon class="st3" points="157.73,75.89 163.19,87.83 179.01,99.62 179.72,99.61 189.39,81 187.96,78.75 170.81,75.17 			"/>
			<polygon class="st3" points="132,106.29 95.38,116.58 138.91,98.12 			"/>
			<polygon class="st3" points="149.96,65.83 174.99,57.46 175.23,58.25 179.38,65.07 170.81,75.17 157.87,73.45 			"/>
			<polygon class="st3" points="182.41,69.74 198.75,62.08 183.86,59.68 179.38,65.07 			"/>
			<polygon class="st3" points="177.18,45.79 187.44,53.3 174.99,57.46 172.44,49.28 			"/>
			<polygon class="st3" points="159.17,41.34 159.41,45.34 168.1,52.48 170.5,50.68 164.67,41.36 			"/>
			<polygon class="st3" points="149.96,65.83 160.03,55.77 162.98,56.25 			"/>
			<polygon class="st3" points="158.59,31.62 170.23,41.25 164.67,41.36 			"/>
			<polygon class="st3" points="159.41,45.34 160.03,55.77 151.98,50.88 130.99,49.3 101.52,42.69 154.78,41.57 			"/>
		</g>
		<g>
			<polygon class="st3" points="99.07,9.04 129.85,4.94 132,4.94 129.55,16.95 			"/>
			<polygon class="st3" points="132,4.94 152.37,15.18 144.54,15.79 			"/>
			<polygon class="st3" points="152.37,15.18 176.37,27.23 226.6,9.4 			"/>
			<polygon class="st3" points="176.37,27.23 191.84,35 183.22,41.34 169.34,40.06 163.19,31.9 			"/>
			<polygon class="st3" points="226.6,9.4 209.22,43.72 200.99,39.59 			"/>
			<polygon class="st3" points="188.63,54.17 198.33,42.74 183.22,41.34 177.18,45.79 			"/>
			<polygon class="st3" points="214.56,44.23 211.84,45.02 223.07,50.68 233.16,45.95 			"/>
			<polygon class="st3" points="199.18,61.88 208.32,63.37 217.72,60.76 226.24,52.27 223.07,50.68 			"/>
			<polygon class="st3" points="232.91,55.62 234.02,67.83 214,64.56 217.72,60.76 			"/>
			<polygon class="st3" points="257.35,57.92 260.19,61.83 248.8,54.55 			"/>
			<polygon class="st3" points="239.67,78.75 243.27,69.33 253.98,71.08 			"/>
			<polygon class="st3" points="235.22,81.13 239.67,78.75 235.91,88.73 			"/>
			<polygon class="st3" points="201,99.48 202.44,99.47 235.91,88.73 224.73,86.76 			"/>
			<polygon class="st3" points="190.31,79.24 196.61,67.05 203.35,64.93 209.22,69.22 197.93,80.82 			"/>
			<polygon class="st3" points="187.96,78.75 183.22,71.27 170.81,75.17 			"/>
			<polygon class="st3" points="179.72,99.61 189.39,81 192.84,86.41 			"/>
			<polygon class="st3" points="138.91,98.12 157.73,75.89 163.19,87.83 			"/>
			<polygon class="st3" points="199.18,61.88 198.75,62.08 183.86,59.68 188.63,54.17 			"/>
			<polygon class="st3" points="179.38,65.07 182.41,69.74 170.81,75.17 			"/>
			<polygon class="st3" points="168.1,52.48 174.48,57.63 173.5,57.96 162.98,56.25 			"/>
			<polygon class="st3" points="172.44,49.28 174.99,57.46 170.5,50.68 			"/>
			<polygon class="st3" points="169.95,41.25 172.44,49.28 177.18,45.79 170.23,41.25 			"/>
			<polygon class="st3" points="159.17,41.34 158.59,31.62 164.67,41.36 			"/>
			<polygon class="st3" points="154.78,41.57 159.17,41.34 159.41,45.34 			"/>
			<polygon class="st3" points="139.77,29.33 154.78,41.57 101.52,42.69 			"/>
		</g>
		<g>
			<polygon class="st3" points="132,4.94 144.54,15.79 129.55,16.95 			"/>
			<polygon class="st3" points="144.54,15.79 163.19,31.9 176.37,27.23 152.37,15.18 			"/>
			<polygon class="st3" points="226.6,9.4 200.99,39.59 191.84,35 			"/>
			<polygon class="st3" points="209.22,43.72 200.99,39.59 198.33,42.74 			"/>
			<polygon class="st3" points="233.16,45.95 243.27,34.63 214.56,44.23 			"/>
			<polygon class="st3" points="183.22,41.34 177.18,45.79 170.23,41.25 169.34,40.06 			"/>
			<polygon class="st3" points="190.06,52.48 188.63,54.17 199.18,61.88 207.23,46.69 			"/>
			<polygon class="st3" points="214.56,44.23 209.22,43.72 207.23,46.69 			"/>
			<polygon class="st3" points="226.24,52.27 223.07,50.68 231.4,46.77 			"/>
			<polygon class="st3" points="217.72,60.76 226.24,52.27 232.91,55.62 			"/>
			<polygon class="st3" points="248.8,54.55 246.75,59.98 232.91,55.62 			"/>
			<polygon class="st3" points="243.27,69.33 253.98,71.08 258,68.74 262.98,68.71 263.25,70.59 267.55,66.53 246.75,59.98 			"/>
			<polygon class="st3" points="234.02,67.83 235.22,81.13 239.67,78.75 243.27,69.33 			"/>
			<polygon class="st3" points="229.7,84.09 235.22,81.13 235.91,88.73 			"/>
			<polygon class="st3" points="209.22,69.22 197.93,80.82 224.73,86.76 229.7,84.09 			"/>
			<polygon class="st3" points="203.35,64.93 208.32,63.37 214,64.56 209.22,69.22 			"/>
			<polygon class="st3" points="170.81,75.17 196.61,67.05 199.18,61.88 			"/>
			<polygon class="st3" points="192.84,86.41 197.93,80.82 187.96,78.75 			"/>
			<polygon class="st3" points="201,99.48 179.72,99.61 192.84,86.41 			"/>
			<polygon class="st3" points="163.19,87.83 160.88,90.94 160.46,98.75 132,106.29 138.91,98.12 			"/>
			<polygon class="st3" points="95.38,116.58 157.73,75.89 138.91,98.12 			"/>
			<polygon class="st3" points="131.08,106.55 118.04,113.91 95.38,116.58 			"/>
			<polygon class="st3" points="188.63,54.17 187.44,53.3 174.99,57.46 174.99,58.05 179.38,65.07 			"/>
			<polygon class="st3" points="149.96,65.83 162.98,56.25 173.5,57.96 			"/>
			<polygon class="st3" points="170.5,50.68 174.99,57.46 174.48,57.63 168.1,52.48 			"/>
			<polygon class="st3" points="164.67,41.36 169.95,41.25 172.44,49.28 170.5,50.68 			"/>
			<polygon class="st3" points="160.03,55.77 159.41,45.34 168.1,52.48 162.98,56.25 			"/>
			<polygon class="st3" points="139.77,29.33 154.78,41.57 159.17,41.34 158.59,31.62 			"/>
			<polygon class="st3" points="92.6,32.91 101.52,42.69 139.77,29.33 			"/>
		</g>
	</g>
</g>
</svg>
